<svg xmlns="http://www.w3.org/2000/svg" width="512" height="512" viewBox="0 0 512 512"><path d="M407,512H105a105.892,105.892,0,0,1-21.151-2.153,104.546,104.546,0,0,1-37.527-15.815A105.424,105.424,0,0,1,8.283,447.85a104.6,104.6,0,0,1-6.13-19.7A105.894,105.894,0,0,1,0,407V105A105.892,105.892,0,0,1,2.153,83.85,104.547,104.547,0,0,1,17.968,46.323,105.425,105.425,0,0,1,64.15,8.283a104.594,104.594,0,0,1,19.7-6.13A105.892,105.892,0,0,1,105,0H407a105.894,105.894,0,0,1,21.151,2.153,104.548,104.548,0,0,1,37.527,15.815,105.426,105.426,0,0,1,38.04,46.182,104.594,104.594,0,0,1,6.13,19.7A105.892,105.892,0,0,1,512,105V407a105.893,105.893,0,0,1-2.153,21.151,104.547,104.547,0,0,1-15.815,37.527,105.425,105.425,0,0,1-46.182,38.04,104.6,104.6,0,0,1-19.7,6.13A105.893,105.893,0,0,1,407,512ZM103.595,97a15.483,15.483,0,0,0-10.97,4.559A15.644,15.644,0,0,0,88,112.706V348.195a15.758,15.758,0,0,0,15.724,15.7,263.453,263.453,0,0,1,31.363,1.931,226.552,226.552,0,0,1,36.526,7.481c29.175,8.629,53.453,22.931,72.159,42.506V169.368a15.032,15.032,0,0,0-2.159-7.953C206.935,105.569,140.3,97.087,103.662,97h-.067Zm304.671,0c-36.635.086-103.272,8.57-137.952,64.416a15.039,15.039,0,0,0-2.156,7.953V415.813c18.706-19.576,42.983-33.878,72.157-42.507a226.556,226.556,0,0,1,36.526-7.481,263.471,263.471,0,0,1,31.364-1.932,15.755,15.755,0,0,0,15.72-15.7V112.705a15.64,15.64,0,0,0-4.621-11.146A15.479,15.479,0,0,0,408.334,97h-.069Z"/></svg>